<?xml version="1.0" encoding="UTF-8"?>
<svg xmlns="http://www.w3.org/2000/svg" viewBox="0 0 400 480" fill="none">
  <defs>
    <linearGradient id="bg" x1="0%" y1="0%" x2="0%" y2="100%">
      <stop offset="0%" stop-color="rgb(245,248,255)"/>
      <stop offset="100%" stop-color="rgb(210,225,245)"/>
    </linearGradient>
    <linearGradient id="glass" x1="0%" y1="0%" x2="100%" y2="100%">
      <stop offset="0%" stop-color="#ffffff" stop-opacity="0.95"/>
      <stop offset="45%" stop-color="#e8f7f8" stop-opacity="0.78"/>
      <stop offset="100%" stop-color="#b8e8ec" stop-opacity="0.55"/>
    </linearGradient>
    <linearGradient id="chrome" x1="0%" y1="0%" x2="0%" y2="100%">
      <stop offset="0%" stop-color="#f4f7f8"/>
      <stop offset="50%" stop-color="#c5d0d6"/>
      <stop offset="100%" stop-color="#8fa3ad"/>
    </linearGradient>
    <filter id="shadow" x="-20%" y="-20%" width="140%" height="140%">
      <feDropShadow dx="0" dy="14" stdDeviation="14" flood-color="#0d1b2e" flood-opacity="0.16"/>
    </filter>
  </defs>
  <rect width="400" height="480" fill="url(#bg)"/>
  <g filter="url(#shadow)">
    <rect x="148" y="40" width="104" height="36" rx="10" fill="url(#chrome)" stroke="#9eb4be" stroke-width="1.2"/>
    <path d="M138 76 h124 c12 0 22 10 22 22 v270 c0 24 -20 44 -44 44 h-80 c-24 0 -44 -20 -44 -44 V98 c0 -12 10 -22 22 -22z" fill="url(#glass)" stroke="#9fd9de" stroke-width="2"/>
    <rect x="155" y="130" width="90" height="170" rx="10" fill="#ffffff" fill-opacity="0.8"/>
    <ellipse cx="185" cy="330" rx="14" ry="22" fill="#00B4C5" fill-opacity="0.35"/>
    <ellipse cx="215" cy="318" rx="14" ry="22" fill="#0d1b2e" fill-opacity="0.2"/>
    
    <rect x="155" y="155" width="90" height="88" rx="8" fill="#ffffff" fill-opacity="0.85" stroke="#00B4C5" stroke-width="1.2"/>
    <text x="200" y="183" text-anchor="middle" font-family="DM Sans, Arial, sans-serif" font-size="11" font-weight="700" fill="#007a8b">CLYR</text>
    <text x="200" y="203" text-anchor="middle" font-family="DM Sans, Arial, sans-serif" font-size="13" font-weight="800" fill="#0d1b2e">Enclomiphene</text>
    <text x="200" y="219" text-anchor="middle" font-family="DM Sans, Arial, sans-serif" font-size="8" font-weight="600" fill="#6b7c8a">Fertility + T</text>
    <text x="200" y="233" text-anchor="middle" font-family="DM Sans, Arial, sans-serif" font-size="7.5" font-weight="600" fill="#6b7c8a">12.5 mg</text></g>
</svg>