<svg xmlns="http://www.w3.org/2000/svg" viewBox="0 0 400 520" width="400" height="520">
  <defs>
    <linearGradient id="body2" x1="0" y1="0" x2="1" y2="0">
      <stop offset="0" stop-color="#F2F5F7"/><stop offset=".2" stop-color="#FFFFFF"/><stop offset=".6" stop-color="#F6F9FA"/><stop offset="1" stop-color="#DEE5E9"/>
    </linearGradient>
    <linearGradient id="cap2" x1="0" y1="0" x2="1" y2="0">
      <stop offset="0" stop-color="#C9D3D9"/><stop offset=".35" stop-color="#F0F4F6"/><stop offset="1" stop-color="#B9C4CB"/>
    </linearGradient>
    <linearGradient id="band2" x1="0" y1="0" x2="1" y2="0">
      <stop offset="0" stop-color="#0E8F87"/><stop offset=".5" stop-color="#2BBCB3"/><stop offset="1" stop-color="#0E8F87"/>
    </linearGradient>
    <filter id="soft2" x="-40%" y="-20%" width="180%" height="150%">
      <feDropShadow dx="0" dy="20" stdDeviation="20" flood-color="#0B1B21" flood-opacity="0.18"/>
    </filter>
  </defs>
  <g filter="url(#soft2)">
    <!-- pump actuator -->
    <path d="M172 60 L228 60 C238 60 244 66 244 76 L244 96 L156 96 L156 76 C156 66 162 60 172 60 Z" fill="url(#cap2)"/>
    <rect x="238" y="66" width="34" height="14" rx="7" fill="#AEB9C0"/>
    <rect x="150" y="96" width="100" height="14" rx="5" fill="#C4CDD3"/>
    <!-- airless cylinder -->
    <path d="M146 122 C146 114 154 110 164 110 L236 110 C246 110 254 114 254 122 L254 452 C254 470 240 478 200 478 C160 478 146 470 146 452 Z" fill="url(#body2)" stroke="#D8E0E4" stroke-width="1.5"/>
    <!-- label -->
    <rect x="158" y="180" width="84" height="210" rx="10" fill="#FFFFFF" stroke="#E5EBEE" stroke-width="1"/>
    <text x="200" y="214" text-anchor="middle" font-family="Arial, Helvetica, sans-serif" font-weight="800" font-size="22" letter-spacing="1" fill="#12242B">CLY<tspan fill="#2BBCB3">R</tspan></text>
    <rect x="172" y="228" width="56" height="2.5" rx="1.25" fill="url(#band2)"/>
    <text x="200" y="258" text-anchor="middle" font-family="Arial" font-weight="700" font-size="14" fill="#12242B">AZELAIC 15%</text>
    <text x="200" y="276" text-anchor="middle" font-family="Arial" font-weight="700" font-size="12" fill="#12242B">+ NIACINAMIDE 4%</text>
    <text x="200" y="302" text-anchor="middle" font-family="Arial" font-size="10" fill="#5B6B74">Clarity · Redness · Tone</text>
    <rect x="172" y="320" width="56" height="20" rx="10" fill="#EAF8F7"/>
    <text x="200" y="334" text-anchor="middle" font-family="Arial" font-weight="700" font-size="10" fill="#0E8F87">Rx ONLY</text>
    <text x="200" y="366" text-anchor="middle" font-family="Arial" font-size="9.5" fill="#8A97A0">Cream · 20 g</text>
  </g>
</svg>
